<?xml version="1.0" encoding="iso-8859-1"?>
<!-- Generator: Adobe Illustrator 19.0.0, SVG Export Plug-In . SVG Version: 6.00 Build 0)  -->
<svg version="1.1" id="Capa_1" xmlns="http://www.w3.org/2000/svg" xmlns:xlink="http://www.w3.org/1999/xlink" x="0px" y="0px"
	 viewBox="0 0 433.47 433.47" style="enable-background:new 0 0 433.47 433.47;" xml:space="preserve">
<g>
	<g>
		<path d="M360.064,54.628l-0.64-0.56c-89.047-78.604-224.851-70.563-304,18l-0.56,0.56C22.538,108.926,3.4,155.066,0.544,203.588
			c0,4.32-0.4,8.64-0.4,12.96c0.02,10.091,0.742,20.169,2.16,30.16c0,0,0,0,0,0.56c9.333,65.123,47.701,122.498,104.32,156
			c0.54,0.42,1.131,0.77,1.76,1.04c103.472,59.898,235.91,24.573,295.807-78.899C455.855,236.159,437.391,122.856,360.064,54.628z
			 M138.864,31.748c24.562-10.478,50.977-15.919,77.68-16h7.28c0.528,2.197,0.302,4.507-0.64,6.56c-2.48,4.72-10.32,8-22.16,9.36
			c-23.027,1.581-41.992,18.695-45.92,41.44c-6.431-1.85-12.061-5.791-16-11.2C130.304,51.108,136.144,36.948,138.864,31.748z
			 M62.544,88.308l35.44,26.16c0.499,0.416,1.068,0.741,1.68,0.96c2.4,1.2,5.44,6.64,2.56,19.04c-1.003-1.137-1.692-2.516-2-4
			c-0.957-4.228-5.108-6.924-9.36-6.08l-16.8,3.28c-4.341,0.822-7.194,5.007-6.372,9.349c0.099,0.524,0.251,1.037,0.452,1.531
			c0,0,4.16,11.12-1.36,16c-2.415,1.966-5.112,3.557-8,4.72c-10,4.72-24,11.28-34.88,38.64c-1.217,3.826-2.968,7.462-5.2,10.8
			c-0.902-1.652-1.626-3.395-2.16-5.2C19.28,161.203,35.388,120.862,62.544,88.308z M21.104,261.748
			c9.329,5.263,19.714,8.379,30.4,9.12c5.96-0.05,10.9,4.607,11.2,10.56c0.315,2.867,2.149,5.343,4.8,6.48
			c10.59,5.527,17.729,15.967,19.04,27.84c0.774,7.8,5.156,14.787,11.84,18.88c11.92,7.12,28.24,3.28,34.56,1.36
			c0.323,0.204,0.596,0.477,0.8,0.8c0.48,0.72,2.56,5.12-2.88,18.16c-4.494,11.898-11.321,22.778-20.08,32
			C65.469,358.759,33.21,313.723,21.104,261.748z M216.544,417.348c-31.839,0.027-63.221-7.571-91.52-22.16
			c8.774-10.234,15.728-21.896,20.56-34.48c5.84-14.16,6.4-25.2,1.6-32.8c-3.126-4.907-8.363-8.073-14.16-8.56
			c-1.088-0.06-2.177,0.104-3.2,0.48c-7.458,2.986-15.732,3.241-23.36,0.72c-2.552-1.631-4.137-4.413-4.24-7.44
			c-1.998-15.8-11.062-29.838-24.64-38.16c-2.799-12.175-13.749-20.722-26.24-20.48c-12.239-1.868-23.878-6.55-34-13.68
			c-0.64-5.28-1.12-10.64-1.36-16c0.559,0.039,1.121,0.039,1.68,0h0.72c10.4,0,16.56-12.08,20.24-21.2
			c8.72-21.6,18-25.92,26.88-30.16c4.498-1.965,8.635-4.669,12.24-8c6.391-6.521,9.224-15.735,7.6-24.72l2.08-0.4
			c4.222,6.718,11.306,11.116,19.2,11.92c3.543,0.209,6.8-1.94,8-5.28c5.293-11.541,5.839-24.7,1.52-36.64
			c-1.991-4.399-5.399-8.005-9.68-10.24l-33.12-23.68c13.484-13.747,28.867-25.493,45.68-34.88c-2.008,11.019,0.916,22.364,8,31.04
			c5.976,7.994,14.406,13.81,24,16.56c1.12,0,2.64,0.88,2.96,1.36c0.871,3.689,4.211,6.261,8,6.16h1.12
			c3.976-0.562,6.92-3.984,6.88-8c0-3.68-0.8-36.4,32.96-40c17.84-1.92,29.52-8,34.64-17.84c2.026-3.921,2.965-8.313,2.72-12.72
			c35.338,3.988,68.973,17.326,97.44,38.64c-64.96,16.72-64,28.72-63.2,34.08c1.2,11.76,1.84,26.4,1.84,26.56
			c0.156,3.706,2.838,6.819,6.48,7.52c9.575,1.279,19.272-1.217,27.04-6.96c0.258,3.702,0.258,7.418,0,11.12
			c-9.995,4.619-21.04,6.497-32,5.44c-6.723-0.476-12.936-3.757-17.12-9.04c-2.561-3.6-7.556-4.443-11.156-1.882
			c-1.232,0.876-2.19,2.083-2.764,3.482l-2.32,5.52c-3.922-3.976-5.577-9.661-4.4-15.12c1.29-7.17-2.426-14.306-9.04-17.36
			c-11.76-4.96-28.8,4.96-36.56,14c-6.147,5.403-7.711,14.353-3.76,21.52c6.4,10.32,29.92,43.44,64,35.6
			c8-1.84,26.72-0.48,61.2,28.8l1.12,0.88c2.08,2.4,9.76,16.72,16,28.24c22.4,41.76,25.44,45.6,31.12,46.88
			c1.33,0.142,2.67,0.142,4,0c15.464-0.999,30.429-5.868,43.52-14.16C390.653,352.686,309.817,417.09,216.544,417.348z
			 M415.904,239.188c-12.844,11.809-29.076,19.281-46.4,21.36c-4.48-5.92-15.36-26.24-22.08-38.88c-12.8-24-16-30.16-19.44-32.64
			l-1.36-1.12c-30.4-25.76-56-36.64-75.12-32c-24,5.52-42.08-20.4-46.88-27.68c1.668-3.686,4.471-6.741,8-8.72
			c3.48-2.596,7.6-4.2,11.92-4.64c0.031,0.453,0.031,0.907,0,1.36c-2.32,26.4,16.48,34.08,24,34.8c3.44,0.269,6.665-1.698,8-4.88
			l0.88-2.08c14.8,9.76,34.48,7.04,43.52,5.04s22.96-6.24,24.56-14.56c0,0,4.72-28.32-7.12-34.8
			c-5.121-2.565-11.336-1.235-14.96,3.2c-3.105,3-6.983,5.077-11.2,6c0-4.96-0.72-11.52-1.36-17.76c6.24-5.52,35.6-15.12,62.24-21.6
			c46.822,43.235,70.236,106.197,63.04,169.52L415.904,239.188z"/>
	</g>
</g>
<g>
	<g>
		<path d="M362.944,303.028c-2.223-5.198-7.478-8.434-13.12-8.08l-13.28-8.72c-0.757-0.512-1.595-0.891-2.48-1.12
			c-1.52,0-14.8-4.32-10.88-23.28c6.72-32.64-3.6-49.92-35.84-59.68c-8-2.4-15.52-5.36-22.88-8
			c-21.726-10.276-45.687-14.925-69.68-13.52c-3.243,0.277-5.995,2.491-6.96,5.6c0,0-6.48,20.16-24,23.36
			c-10.95,2.049-18.603,12.012-17.76,23.12c0,18.88,13.6,43.28,32.88,47.6l2.24,0.48c22.16,4.88,41.28,9.12,32,61.68
			c-4.64,26.64-2.24,45.76,7.04,56.8c5.615,6.38,13.831,9.855,22.32,9.44c18.4,0,43.12-14,73.6-41.68
			C362.784,324.708,366.144,311.028,362.944,303.028z M305.424,355.508c-35.92,32.64-54.8,37.2-62.88,37.2
			c-3.751,0.361-7.455-1.061-10-3.84c-5.84-6.96-7.12-22.96-3.52-43.76c11.52-67.68-22-75.12-44.48-80.4h-2.08
			c-10.8-2.4-20.64-19.92-20.4-32c0-6.88,3.2-7.44,4.72-8c15.537-3.501,28.382-14.374,34.4-29.12
			c19.915-0.085,39.596,4.289,57.6,12.8c8,3.04,15.6,6.08,24,8.64c24,7.28,29.84,16.8,24.8,41.12
			c-5.36,26.56,10.8,38.56,20.96,42.08l14.32,9.6c1.008,0.676,2.157,1.114,3.36,1.28
			C343.744,316.388,334.624,328.708,305.424,355.508z"/>
	</g>
</g>
<g>
</g>
<g>
</g>
<g>
</g>
<g>
</g>
<g>
</g>
<g>
</g>
<g>
</g>
<g>
</g>
<g>
</g>
<g>
</g>
<g>
</g>
<g>
</g>
<g>
</g>
<g>
</g>
<g>
</g>
</svg>
